# xmcd
#
# Track frame offsets:
#	150
#	16563
#	32529
#	57069
#	83470
#	103320
#	124929
#	141747
#	163318
#	183028
#
# Disc length: 2806 seconds
# Revision: 0
# Processed by: cddbd v1.5.2PL0 Copyright (c) Steve Scherf et al.
# Submitted via: dBpowerAMP V12.0
#
DISCID=7b0af40a
DTITLE=Bobby Messano - Love and Money
DYEAR=2015
DGENRE=Blues
TTITLE0=April Showers
TTITLE1=Love and Money
TTITLE2=Seasons
TTITLE3=What I Got
TTITLE4=Everything Is Gonna Be Alright
TTITLE5=Had To Cry Today
TTITLE6=Boddentown
TTITLE7=Rollin' On
TTITLE8=My Failed Career
TTITLE9=Hard Road
EXTD=
EXTT0=
EXTT1=
EXTT2=
EXTT3=
EXTT4=
EXTT5=
EXTT6=
EXTT7=
EXTT8=
EXTT9=
PLAYORDER=
